<svg width="600" height="700" viewBox="0 0 600 700" fill="none" xmlns="http://www.w3.org/2000/svg">
  <rect width="600" height="700" fill="url(#bg)"/>
  <circle cx="300" cy="170" r="82" fill="#2B1C12"/>
  <path d="M190 360C205 270 250 235 300 235C350 235 395 270 410 360L455 700H145L190 360Z" fill="#101010"/>
  <path d="M160 430C205 390 245 370 300 370C355 370 395 390 440 430L455 700H145L160 430Z" fill="#0F8A35"/>
  <path d="M185 430H415L455 700H145L185 430Z" fill="#111827"/>
  <path d="M185 430H415L407 485H193L185 430Z" fill="#16A34A"/>
  <path d="M215 520H385" stroke="#22C55E" stroke-width="18"/>
  <path d="M205 585H395" stroke="#22C55E" stroke-width="18"/>
  <circle cx="270" cy="160" r="10" fill="#F4C09B"/>
  <circle cx="330" cy="160" r="10" fill="#F4C09B"/>
  <path d="M250 200C275 222 325 222 350 200" stroke="#7C3F24" stroke-width="10" stroke-linecap="round"/>
  <defs>
    <linearGradient id="bg" x1="0" y1="0" x2="600" y2="700">
      <stop stop-color="#DDEBFF"/>
      <stop offset="1" stop-color="#42536F"/>
    </linearGradient>
  </defs>
</svg>
